<svg xmlns="http://www.w3.org/2000/svg" xmlns:xlink="http://www.w3.org/1999/xlink" viewBox="0 0 69.79 39.25"><defs><style>.cls-1{isolation:isolate;}.cls-2{fill:#314fcb;}.cls-3{mix-blend-mode:multiply;}.cls-4{fill:url(#未命名的渐变_19);}.cls-5{fill:url(#未命名的渐变_22);}.cls-6{fill:url(#未命名的渐变_27);}.cls-7{fill:url(#未命名的渐变_19-2);}</style><linearGradient id="未命名的渐变_19" x1="14.55" y1="14.81" x2="8.62" y2="19.79" gradientUnits="userSpaceOnUse"><stop offset="0" stop-color="#7e8ccf"/><stop offset="0.62" stop-color="#fff"/></linearGradient><linearGradient id="未命名的渐变_22" x1="32.91" y1="11.75" x2="38.72" y2="17.56" gradientUnits="userSpaceOnUse"><stop offset="0.26" stop-color="#7e8ccf"/><stop offset="0.88" stop-color="#fff"/></linearGradient><linearGradient id="未命名的渐变_27" x1="47.31" y1="9.35" x2="47.31" y2="9.35" gradientUnits="userSpaceOnUse"><stop offset="0.11" stop-color="#2e4ace"/><stop offset="0.79" stop-color="#fff"/></linearGradient><linearGradient id="未命名的渐变_19-2" x1="52.55" y1="14.97" x2="61.58" y2="14.97" xlink:href="#未命名的渐变_19"/></defs><g class="cls-1"><g id="图层_2" data-name="图层 2"><g id="图层_1-2" data-name="图层 1"><path class="cls-2" d="M.88,31.37H2.82V32H.13V27.69H.88Z"/><path class="cls-2" d="M6.33,27.69v2.86a1.4,1.4,0,0,1-.43,1.08,1.69,1.69,0,0,1-1.17.4,1.6,1.6,0,0,1-1.16-.4,1.39,1.39,0,0,1-.44-1.09V27.69h.75v2.86a1,1,0,0,0,.21.66.86.86,0,0,0,.64.22c.58,0,.86-.3.86-.9V27.69Z"/><path class="cls-2" d="M8.4,29.71l1-2h.82l-1.43,2.7V32H8V30.39l-1.44-2.7h.83Z"/><path class="cls-2" d="M13.41,27.69v2.86A1.41,1.41,0,0,1,13,31.63a1.68,1.68,0,0,1-1.16.4,1.65,1.65,0,0,1-1.17-.4,1.38,1.38,0,0,1-.43-1.09V27.69H11v2.86a.91.91,0,0,0,.22.66.83.83,0,0,0,.64.22c.57,0,.86-.3.86-.9V27.69Z"/><path class="cls-2" d="M18.73,30.57a1.58,1.58,0,0,1-.51,1.07,1.7,1.7,0,0,1-1.17.39,1.64,1.64,0,0,1-.91-.25,1.56,1.56,0,0,1-.6-.69,2.52,2.52,0,0,1-.22-1v-.4a2.41,2.41,0,0,1,.22-1.07,1.58,1.58,0,0,1,.61-.71,1.71,1.71,0,0,1,.93-.25,1.69,1.69,0,0,1,1.14.38,1.63,1.63,0,0,1,.51,1.09H18a1,1,0,0,0-.27-.67.9.9,0,0,0-.63-.2.87.87,0,0,0-.74.35,1.72,1.72,0,0,0-.27,1V30a1.85,1.85,0,0,0,.25,1.06.83.83,0,0,0,.73.37,1,1,0,0,0,.66-.2,1,1,0,0,0,.27-.66Z"/><path class="cls-2" d="M20.84,30.32H20V32h-.74V27.69h1.51a1.76,1.76,0,0,1,1.14.33,1.16,1.16,0,0,1,.4,1,1.18,1.18,0,0,1-.21.72,1.37,1.37,0,0,1-.57.45l1,1.78v0h-.8Zm-.83-.6h.77a.85.85,0,0,0,.59-.19.67.67,0,0,0,.21-.52.71.71,0,0,0-.2-.53.78.78,0,0,0-.58-.19H20Z"/><path class="cls-2" d="M26.32,29.94a2.67,2.67,0,0,1-.21,1.1,1.68,1.68,0,0,1-.63.73,1.78,1.78,0,0,1-1.85,0,1.58,1.58,0,0,1-.63-.72A2.53,2.53,0,0,1,22.77,30v-.24a2.66,2.66,0,0,1,.22-1.1,1.63,1.63,0,0,1,1.56-1,1.65,1.65,0,0,1,.92.25,1.71,1.71,0,0,1,.63.72,2.54,2.54,0,0,1,.22,1.1Zm-.74-.23a1.89,1.89,0,0,0-.27-1.09.88.88,0,0,0-.76-.38.89.89,0,0,0-.76.38,1.82,1.82,0,0,0-.27,1.07v.25A1.89,1.89,0,0,0,23.79,31a1,1,0,0,0,1.52,0,1.88,1.88,0,0,0,.27-1.1Z"/><path class="cls-2" d="M29.18,30.86a.5.5,0,0,0-.2-.43,2.32,2.32,0,0,0-.71-.31,3.28,3.28,0,0,1-.83-.35,1.08,1.08,0,0,1-.58-.95,1.06,1.06,0,0,1,.42-.86,1.74,1.74,0,0,1,1.1-.33,1.83,1.83,0,0,1,.79.16,1.27,1.27,0,0,1,.55.47,1.16,1.16,0,0,1,.2.68h-.74a.68.68,0,0,0-.21-.53.85.85,0,0,0-.6-.19.9.9,0,0,0-.57.16.52.52,0,0,0-.2.43.45.45,0,0,0,.22.39,2.27,2.27,0,0,0,.72.31,3.2,3.2,0,0,1,.8.34,1.3,1.3,0,0,1,.44.43,1.11,1.11,0,0,1,.15.58,1,1,0,0,1-.42.85A1.77,1.77,0,0,1,28.4,32a2,2,0,0,1-.85-.18,1.45,1.45,0,0,1-.61-.47,1.21,1.21,0,0,1-.21-.71h.74a.69.69,0,0,0,.24.57,1.07,1.07,0,0,0,.69.2.9.9,0,0,0,.59-.16A.5.5,0,0,0,29.18,30.86Z"/><path class="cls-2" d="M32.7,30.86a.52.52,0,0,0-.2-.43,2.28,2.28,0,0,0-.72-.31,3.19,3.19,0,0,1-.82-.35,1.09,1.09,0,0,1-.59-.95,1.06,1.06,0,0,1,.42-.86,1.76,1.76,0,0,1,1.1-.33,1.87,1.87,0,0,1,.8.16,1.4,1.4,0,0,1,.55.47,1.23,1.23,0,0,1,.2.68H32.7a.71.71,0,0,0-.21-.53.89.89,0,0,0-.61-.19.85.85,0,0,0-.56.16.5.5,0,0,0-.2.43.46.46,0,0,0,.21.39,2.5,2.5,0,0,0,.72.31,3.2,3.2,0,0,1,.8.34,1.33,1.33,0,0,1,.45.43,1.21,1.21,0,0,1,.14.58,1,1,0,0,1-.41.85,1.79,1.79,0,0,1-1.11.32,2,2,0,0,1-.86-.18,1.36,1.36,0,0,1-.6-.47,1.15,1.15,0,0,1-.22-.71H31a.67.67,0,0,0,.25.57,1.07,1.07,0,0,0,.69.2.89.89,0,0,0,.58-.16A.5.5,0,0,0,32.7,30.86Z"/><path class="cls-2" d="M3.4,37.8a1.55,1.55,0,0,1-.5,1.07,1.78,1.78,0,0,1-1.18.38A1.68,1.68,0,0,1,.82,39a1.56,1.56,0,0,1-.6-.69,2.57,2.57,0,0,1-.22-1v-.4a2.51,2.51,0,0,1,.21-1.06,1.68,1.68,0,0,1,.62-.72,1.8,1.8,0,0,1,.93-.25,1.64,1.64,0,0,1,1.14.39,1.6,1.6,0,0,1,.5,1.08H2.66a1,1,0,0,0-.27-.66.86.86,0,0,0-.63-.21.87.87,0,0,0-.75.36,1.77,1.77,0,0,0-.26,1v.38A1.87,1.87,0,0,0,1,38.29a.81.81,0,0,0,.72.36,1,1,0,0,0,.66-.19,1,1,0,0,0,.28-.66Z"/><path class="cls-2" d="M7.35,39.19H6.6v-1.9H4.69v1.9H4V34.91h.74v1.78H6.6V34.91h.75Z"/><path class="cls-2" d="M10.55,38.2H8.89l-.34,1H7.77l1.62-4.28h.67l1.62,4.28H10.9ZM9.1,37.6h1.24l-.62-1.78Z"/><path class="cls-2" d="M12.83,39.19h-.74V34.91h.74Z"/><path class="cls-2" d="M17,39.19h-.74l-1.91-3v3h-.75V34.91h.75L16.28,38V34.91H17Z"/><path class="cls-2" d="M19.9,37.61v1.58h-.74V34.91H20.8a1.64,1.64,0,0,1,1.13.38,1.24,1.24,0,0,1,.43,1,1.21,1.21,0,0,1-.42,1,1.74,1.74,0,0,1-1.15.35Zm0-.6h.9a.9.9,0,0,0,.6-.19.69.69,0,0,0,.21-.54.72.72,0,0,0-.21-.55.84.84,0,0,0-.58-.22H19.9Z"/><path class="cls-2" d="M24.46,37.55h-.83v1.64h-.74V34.91h1.5a1.72,1.72,0,0,1,1.15.34,1.19,1.19,0,0,1,.4,1,1.22,1.22,0,0,1-.21.72,1.3,1.3,0,0,1-.58.44l1,1.79v0h-.79Zm-.83-.6h.76a.87.87,0,0,0,.59-.19.67.67,0,0,0,.21-.52.69.69,0,0,0-.19-.53.84.84,0,0,0-.58-.2h-.79Z"/><path class="cls-2" d="M29.94,37.17a2.57,2.57,0,0,1-.22,1.1,1.59,1.59,0,0,1-.62.73,1.85,1.85,0,0,1-1.86,0,1.68,1.68,0,0,1-.63-.73,2.45,2.45,0,0,1-.22-1.08V37a2.59,2.59,0,0,1,.22-1.11,1.68,1.68,0,0,1,.63-.73,1.78,1.78,0,0,1,1.85,0,1.59,1.59,0,0,1,.63.72,2.66,2.66,0,0,1,.22,1.1Zm-.74-.23a1.87,1.87,0,0,0-.27-1.09.9.9,0,0,0-.77-.38.88.88,0,0,0-.75.38,1.89,1.89,0,0,0-.28,1.07v.25a1.81,1.81,0,0,0,.28,1.09.88.88,0,0,0,.76.38.86.86,0,0,0,.76-.38,1.85,1.85,0,0,0,.27-1.09Z"/><path class="cls-2" d="M33.4,35.51H32.07v3.68h-.74V35.51H30v-.6H33.4Z"/><path class="cls-2" d="M37.18,37.17a2.57,2.57,0,0,1-.22,1.1,1.59,1.59,0,0,1-.62.73,1.85,1.85,0,0,1-1.86,0,1.68,1.68,0,0,1-.63-.73,2.6,2.6,0,0,1-.22-1.08V37a2.59,2.59,0,0,1,.22-1.11,1.67,1.67,0,0,1,1.55-1,1.71,1.71,0,0,1,.93.26,1.59,1.59,0,0,1,.63.72,2.66,2.66,0,0,1,.22,1.1Zm-.74-.23a1.87,1.87,0,0,0-.27-1.09.9.9,0,0,0-.77-.38.88.88,0,0,0-.75.38,1.89,1.89,0,0,0-.28,1.07v.25a1.81,1.81,0,0,0,.28,1.09.88.88,0,0,0,.76.38.86.86,0,0,0,.76-.38,1.85,1.85,0,0,0,.27-1.09Z"/><path class="cls-2" d="M41.07,37.8a1.56,1.56,0,0,1-.51,1.07,1.73,1.73,0,0,1-1.17.38,1.68,1.68,0,0,1-.9-.24,1.56,1.56,0,0,1-.6-.69,2.28,2.28,0,0,1-.22-1v-.4a2.51,2.51,0,0,1,.21-1.06,1.62,1.62,0,0,1,.62-.72,1.73,1.73,0,0,1,.92-.25,1.54,1.54,0,0,1,1.65,1.47h-.74a1.09,1.09,0,0,0-.27-.66.9.9,0,0,0-.64-.21.85.85,0,0,0-.74.36,1.77,1.77,0,0,0-.27,1v.38a1.87,1.87,0,0,0,.25,1.06.84.84,0,0,0,.73.36,1,1,0,0,0,.66-.19,1.1,1.1,0,0,0,.28-.66Z"/><path class="cls-2" d="M45,37.17a2.57,2.57,0,0,1-.22,1.1,1.59,1.59,0,0,1-.62.73,1.85,1.85,0,0,1-1.86,0,1.68,1.68,0,0,1-.63-.73,2.45,2.45,0,0,1-.22-1.08V37a2.59,2.59,0,0,1,.22-1.11,1.66,1.66,0,0,1,.62-.73,1.79,1.79,0,0,1,1.86,0,1.52,1.52,0,0,1,.62.72,2.51,2.51,0,0,1,.23,1.1Zm-.75-.23A1.87,1.87,0,0,0,44,35.85a.94.94,0,0,0-1.51,0,1.82,1.82,0,0,0-.28,1.07v.25a1.81,1.81,0,0,0,.28,1.09.88.88,0,0,0,.76.38.86.86,0,0,0,.76-.38,1.85,1.85,0,0,0,.26-1.09Z"/><path class="cls-2" d="M46.39,38.6h2v.59H45.65V34.91h.74Z"/><path class="cls-2" d="M69.79,9.35V0H64.55V9.35h0a6,6,0,0,1-12,0V0H47.31V9.35a6,6,0,0,1-12,0V0H30.07V9.35h0a6,6,0,0,1-12,0h0V0H12.83V9.35a11.15,11.15,0,0,0,1.34,5.3,5.89,5.89,0,0,1-2.77.69,6,6,0,0,1-6-6h0V0H.16V9.35A11.26,11.26,0,0,0,11.4,20.59a11.07,11.07,0,0,0,6.32-2,11.22,11.22,0,0,0,6.36,2,11.12,11.12,0,0,0,8.61-4.06,11.17,11.17,0,0,0,14.62,2.31v2.38a6,6,0,0,1-6,6H36v5.24H41.3A11.24,11.24,0,0,0,52.54,21.22V18.83A11.23,11.23,0,0,0,69.79,9.35Z"/><g class="cls-3"><path class="cls-4" d="M14.16,14.65a6,6,0,0,1-4.43.47,5.7,5.7,0,0,1-2-1v5.86a7,7,0,0,0,.91.31,11.16,11.16,0,0,0,9.08-1.64A11.29,11.29,0,0,1,14.16,14.65Z"/><path class="cls-5" d="M41.31,15.35a6,6,0,0,1-6-6,11.15,11.15,0,0,1-2.61,7.18,11.26,11.26,0,0,0,4.41,3.23l4.44-4.44Z"/><polygon class="cls-6" points="47.31 9.35 47.31 9.35 47.31 9.35 47.31 9.35"/><path class="cls-7" d="M58.55,15.35a6,6,0,0,1-6-6v9.48a11.1,11.1,0,0,0,6,1.75,11.2,11.2,0,0,0,3-.42V14.49A5.91,5.91,0,0,1,58.55,15.35Z"/></g></g></g></g></svg>